{"title":"Turner &amp; Hooch DVD9rip English Klam","uid":6590911,"size":1558092512,"categoryP":"video","categoryS":"movies","magnet":"?xt=urn:btih:aa3ae01875155c72b0bc4311e2b47a90930d45cd&amp;dn=Turner+%26+Hooch+DVD9rip+English+Klam&amp;tr=udp%3A%2F%2Ftracker.openbittorrent.com%3A80&amp;tr=udp%3A%2F%2Fopen.demonii.com%3A1337&amp;tr=udp%3A%2F%2Ftracker.coppersurfer.tk%3A6969&amp;tr=udp%3A%2F%2Fexodus.desync.com%3A6969","seeders":0,"leechers":1,"uploader":"Klambake","files":-1,"time":1312821609,"description":"With: Tom Hanks, Mare Winningham and Craig T. Nelson\n\nAgent Scott Turner heeft nog drie dagen te gaan voor hij naar de grote stad overgeplaatst zal worden voor het &quot;echte&quot; werk. Wanneer Amos Reed vermoord wordt stort Scott zich op de zaak. De enige getuige is Reed's hond Hooch. Scott moet de zorg voor de hond op zich nemen om te voorkomen dat ze de hond laten inslapen.\n\nA detective must adopt the dog of a dead man to help him find the murderer. \n\n------------------ Dutch Friends ------------------\nYou can find my Friends at: http://www.Film-Test.nl \n------ They got my dutchs subs ---- and more ------\n\nGeneral:\n\nComplete name                    : Turner &amp; Hooch\\Turner and Hooch.avi\nFormat                           : AVI\nFormat/Info                      : Audio Video Interleave\nFile size                        : 1.45 GiB\nDuration                         : 1h 35mn\nOverall bit rate                 : 2 175 Kbps\n\nVideo:\n\nFormat                           : MPEG-4 Visual\nFormat profile                   : Simple@L3\nFormat settings, BVOP            : No\nFormat settings, QPel            : No\nFormat settings, GMC             : No warppoints\nFormat settings, Matrix          : Default (H.263)\nCodec ID                         : XVID\nCodec ID/Hint                    : XviD\nDuration                         : 1h 35mn\nBit rate                         : 1 780 Kbps\nWidth                            : 652 pixels\nHeight                           : 352 pixels\nDisplay aspect ratio             : 1.852\nFrame rate                       : 25.000 fps\nColor space                      : YUV\nChroma subsampling               : 4:2:0\nBit depth                        : 8 bits\nScan type                        : Progressive\nBits/(Pixel*Frame)               : 0.310\nStream size                      : 1.19 GiB (82%)\nWriting library                  : XviD 1.1.2 (UTC 2006-11-01)\n\nAudio:\n\nFormat                           : AC-3\nFormat/Info                      : Audio Coding 3\nMode extension                   : CM (complete main)\nCodec ID                         : 2000\nDuration                         : 1h 35mn\nBit rate mode                    : Constant\nBit rate                         : 384 Kbps\nChannel(s)                       : 6 channels\nChannel positions                : Front: L C R, Side: L R, LFE\nSampling rate                    : 48.0 KHz\nBit depth                        : 16 bits\nStream size                      : 262 MiB (18%)\nAlignment                        : Aligned on interleaves\nInterleave, duration             : 32 ms (0.80 video frame)\nInterleave, preload duration     : 160 ms\n\n","torrent":{"xt":"urn:btih:aa3ae01875155c72b0bc4311e2b47a90930d45cd","amp;dn":"Turner+%26+Hooch+DVD9rip+English+Klam","amp;tr":["udp%3A%2F%2Ftracker.openbittorrent.com%3A80","udp%3A%2F%2Fopen.demonii.com%3A1337","udp%3A%2F%2Ftracker.coppersurfer.tk%3A6969","udp%3A%2F%2Fexodus.desync.com%3A6969"],"infoHash":"aa3ae01875155c72b0bc4311e2b47a90930d45cd","infoHashBuffer":{"type":"Buffer","data":[170,58,224,24,117,21,92,114,176,188,67,17,226,180,122,144,147,13,69,205]},"announce":[],"urlList":[]}}